<svg id="Capa_1" enable-background="new 0 0 503 503" height="512" viewBox="0 0 503 503" width="512" xmlns="http://www.w3.org/2000/svg"><g id="XMLID_81_"><path id="XMLID_437_" d="m215.669 289.349h71.662v213.651h-71.662z" fill="#cc7a29"/><path id="XMLID_3742_" d="m251.5 289.349h35.831v213.651h-35.831z" fill="#b35324"/><path id="XMLID_88_" d="m319.912 260.204c37.541 0 71.239-35.819 71.239-80.003s-67.974-138.566-67.974-138.566-9.471 13.151-21.341 31.93c-24.693-40.49-50.336-73.565-50.336-73.565s-25.643 33.075-50.336 73.564c-11.87-18.779-21.341-31.93-21.341-31.93s-67.974 94.381-67.974 138.566 33.698 80.003 71.239 80.003h136.824z" fill="#ffe666"/><path id="XMLID_3816_" d="m323.177 41.635s-9.471 13.151-21.341 31.93c-24.693-40.49-50.336-73.565-50.336-73.565v260.204h68.412c37.541 0 71.239-35.819 71.239-80.003 0-44.185-67.974-138.566-67.974-138.566z" fill="#fb3"/><path id="XMLID_438_" d="m183.088 199.952h136.824v111.611h-136.824z" fill="#b35324"/><path id="XMLID_3775_" d="m251.5 199.952h68.412v111.611h-68.412z" fill="#803c19"/></g></svg>